<?xml version="1.0" encoding="UTF-8" standalone="no"?>
<svg
   xmlns:dc="http://purl.org/dc/elements/1.1/"
   xmlns:cc="http://creativecommons.org/ns#"
   xmlns:rdf="http://www.w3.org/1999/02/22-rdf-syntax-ns#"
   xmlns:svg="http://www.w3.org/2000/svg"
   xmlns="http://www.w3.org/2000/svg"
   xmlns:sodipodi="http://sodipodi.sourceforge.net/DTD/sodipodi-0.dtd"
   xmlns:inkscape="http://www.inkscape.org/namespaces/inkscape"
   width="210mm"
   height="297mm"
   viewBox="0 0 210 297"
   version="1.1"
   id="svg8"
   inkscape:version="1.0.2 (e86c870879, 2021-01-15)"
   sodipodi:docname="logo.svg">
  <defs
     id="defs2" />
  <sodipodi:namedview
     id="base"
     pagecolor="#ffffff"
     bordercolor="#666666"
     borderopacity="1.0"
     inkscape:pageopacity="0.0"
     inkscape:pageshadow="2"
     inkscape:zoom="1.6451842"
     inkscape:cx="350.51452"
     inkscape:cy="564.44597"
     inkscape:document-units="mm"
     inkscape:current-layer="layer1"
     inkscape:document-rotation="0"
     showgrid="false"
     inkscape:snap-global="false"
     inkscape:window-width="1920"
     inkscape:window-height="1016"
     inkscape:window-x="0"
     inkscape:window-y="27"
     inkscape:window-maximized="1" />
  <metadata
     id="metadata5">
    <rdf:RDF>
      <cc:Work
         rdf:about="">
        <dc:format>image/svg+xml</dc:format>
        <dc:type
           rdf:resource="http://purl.org/dc/dcmitype/StillImage" />
        <dc:title></dc:title>
      </cc:Work>
    </rdf:RDF>
  </metadata>
  <g
     inkscape:label="Layer 1"
     inkscape:groupmode="layer"
     id="layer1">
    <ellipse
       style="fill:#ffffff;fill-opacity:1;stroke:#000000;stroke-width:0.26458333;stroke-miterlimit:4;stroke-dasharray:none;stroke-opacity:1"
       id="path889"
       cx="101.6481"
       cy="146.79503"
       rx="52.473969"
       ry="52.473965"
       inkscape:export-filename="/home/daniela/logo.png"
       inkscape:export-xdpi="96"
       inkscape:export-ydpi="96" />
    <path
       style="fill:#000000;stroke:none;stroke-width:0.264583;stroke-linecap:butt;stroke-linejoin:miter;stroke-miterlimit:4;stroke-dasharray:none;stroke-opacity:1;fill-opacity:1"
       d="m 56.858508,168.5414 90.793752,-0.0749 c 0,0 -2.39734,-5.27259 -3.97533,-7.68766 -1.2359,-1.89152 -6.59749,-3.86353 -8.47396,-5.12218 -6.24473,-4.18866 -3.83653,-2.03536 -7.27195,-6.02488 -3.40698,-3.95651 -6.55081,-5.28013 -11.74128,-4.71392 -4.59457,0.5012 -11.31464,-2.15516 -15.93488,-2.27627 -4.783583,-0.12539 -8.166921,3.20874 -12.903054,3.8924 -5.572036,0.80434 -9.138252,-1.13071 -13.060548,0.43609 -4.969895,1.98527 -4.27672,3.29875 -7.576856,6.5964 -2.145729,2.14411 -6.990048,3.62868 -7.969698,6.49951 -0.934719,2.73916 -1.886196,8.47541 -1.886196,8.47541 z"
       id="path833"
       sodipodi:nodetypes="ccsssssssssc" />
    <path
       id="path839"
       style="fill:#000000;stroke:#000000;stroke-width:0.264583px;stroke-linecap:butt;stroke-linejoin:miter;stroke-opacity:1;fill-opacity:1"
       d="m 116.17265,124.37964 -4.01869,-16.47987 c 0,0 -3.56861,0.0388 -5.17659,0.70781 -1.06335,0.44238 -1.98479,1.48289 -3.07348,1.77544 -0.34049,0.0915 -1.67672,0.21942 -2.9321,-0.24562 -0.79331,-0.29387 -1.78617,-1.30399 -2.817408,-1.65397 -1.605053,-0.5447 -5.04616,-0.62641 -5.04616,-0.62641 l -5.472924,17.02388 m -10.167873,1.79511 c 0,0 10.258829,3.70897 15.628404,4.16728 3.748082,0.31991 17.886181,0.4407 22.112231,-0.10074 4.84487,-0.62072 13.80375,-4.89575 13.80375,-4.89575 0,0 -9.12054,-2.84408 -13.73395,-4.26393 0,0 -3.83288,1.13858 -5.8094,1.35839 -5.11253,0.56857 -10.371507,0.7991 -15.431618,-0.12636 -1.872428,-0.34245 -5.562421,-1.00317 -5.562421,-1.00317 -3.224573,1.01539 -11.006996,4.86428 -11.006996,4.86428 z" />
    <path
       style="fill:#000000;stroke:#000000;stroke-width:0.264583px;stroke-linecap:butt;stroke-linejoin:miter;stroke-opacity:1;fill-opacity:1"
       d="m 91.103541,133.00964 7.950239,0.96897 1.05614,1.13436 -0.121907,1.20726 -1.30239,1.9254 -7.362709,-0.8691 -1.032892,-2.83605 z"
       id="path845"
       sodipodi:nodetypes="cccccccc" />
    <path
       style="fill:#000000;stroke:#000000;stroke-width:0.264583px;stroke-linecap:butt;stroke-linejoin:miter;stroke-opacity:1;fill-opacity:1"
       d="m 113.94706,133.07531 -7.95024,0.96897 -1.05614,1.13436 0.12191,1.20726 1.30239,1.9254 7.36271,-0.8691 1.03289,-2.83605 z"
       id="path845-3"
       sodipodi:nodetypes="cccccccc" />
    <ellipse
       style="fill:#000000;fill-opacity:1;stroke:none;stroke-width:0.264583;stroke-miterlimit:4;stroke-dasharray:none;stroke-opacity:1"
       id="path887"
       cx="89.997665"
       cy="140.30714"
       rx="0.8320263"
       ry="0.84536409" />
  </g>
</svg>
